<svg width="23" height="29" viewBox="0 0 23 29" fill="none" xmlns="http://www.w3.org/2000/svg">
<path d="M11.4192 0.0309668C10.8667 0.0851786 10.3255 0.22097 9.80145 0.421838C9.27788 0.622785 8.77068 0.888035 8.28091 1.2047C6.81203 2.15656 5.46663 3.57886 4.28025 5.33202C3.09656 7.08795 2.07725 9.18671 1.33118 11.5147C0.762663 13.2886 0.404542 15.0343 0.245405 16.6862C0.0863096 18.3382 0.126119 19.8966 0.363857 21.299L0.364041 21.3C0.60413 22.7016 1.04011 23.9598 1.73063 24.999C2.07688 25.5182 2.48995 25.9841 2.9788 26.3673C3.468 26.7511 4.03262 27.0487 4.65499 27.2269L9.54364 28.6303C10.1663 28.8095 10.8109 28.8591 11.4429 28.7971C11.9955 28.7429 12.5362 28.6069 13.0602 28.4061C13.5844 28.2049 14.091 27.9399 14.5807 27.6234L14.5815 27.6226C16.0494 26.6705 17.3962 25.2501 18.5817 23.4966L18.5873 23.487C19.7686 21.7326 20.7861 19.6378 21.5315 17.3136C22.0994 15.54 22.4576 13.7939 22.6168 12.1419C22.7759 10.4899 22.7356 8.9314 22.4983 7.52914L22.4976 7.52802C22.2575 6.12645 21.821 4.86852 21.1315 3.82912L21.1307 3.8284C20.7854 3.30954 20.3726 2.84472 19.8832 2.46131C19.3938 2.07795 18.8289 1.77976 18.2062 1.60099L13.3176 0.197594C12.6953 0.018949 12.0511 -0.0304932 11.4192 0.0309668ZM13.0588 26.3371C12.8735 26.4391 12.689 26.5309 12.5076 26.6079C12.0755 26.7898 11.6577 26.8995 11.26 26.9385C10.8613 26.9773 10.4827 26.9454 10.1173 26.8405L7.9011 26.2043C8.34115 26.0316 8.77735 25.8036 9.20599 25.5271C9.30801 25.4603 9.40988 25.391 9.51208 25.3189L13.0588 26.3371ZM15.5924 24.2346C15.4544 24.3895 15.3153 24.5412 15.1739 24.6845C14.8461 25.0185 14.5145 25.3174 14.1837 25.5821L10.501 24.5249C10.9524 24.1179 11.394 23.6585 11.8213 23.152L15.5924 24.2346ZM17.6701 21.3268C17.2303 22.0883 16.7615 22.7868 16.2741 23.4149L16.2928 23.3568L12.5137 22.2719C12.6642 22.0683 12.8124 21.8576 12.9587 21.6415C13.2603 21.194 13.5509 20.7197 13.8304 20.2245L17.6701 21.3268ZM19.5017 17.2703C19.1199 18.3815 18.6692 19.4257 18.1724 20.3925L14.327 19.2886C14.819 18.314 15.2599 17.2671 15.6389 16.1615L19.5017 17.2703ZM20.5622 12.8571C20.408 13.9617 20.165 15.1108 19.8155 16.2816L15.9578 15.1741C16.305 14.0106 16.5583 12.863 16.7223 11.7548L20.5622 12.8571ZM20.7389 9.40356C20.759 9.78966 20.765 10.1875 20.7559 10.5973C20.7472 10.9928 20.7219 11.4004 20.6857 11.8146L16.8506 10.7137C16.9328 9.8835 16.9613 9.0798 16.9395 8.31287L20.7389 9.40356ZM20.2272 6.42641C20.4113 6.98965 20.5494 7.61657 20.6394 8.29712L16.8702 7.21508C16.838 6.89057 16.7971 6.57284 16.7451 6.26577C16.692 5.9584 16.6287 5.66089 16.5567 5.37271L20.2272 6.42641ZM17.6326 3.3907C17.998 3.49561 18.3316 3.66817 18.6401 3.91046C19.0394 4.22217 19.3972 4.65545 19.6998 5.19706L16.2221 4.19872L16.2033 4.25737C16.0086 3.75417 15.7775 3.29121 15.5034 2.87897C15.4752 2.83694 15.4462 2.79608 15.4173 2.75482L17.6326 3.3907ZM13.7506 2.50682C14.2896 2.92755 14.753 3.56808 15.1058 4.39844C15.6359 5.64187 15.9088 7.30311 15.8663 9.19357C15.8255 11.0839 15.4724 13.2035 14.7766 15.3744C13.7181 18.6822 12.0618 21.4736 10.2843 23.2808C9.39734 24.1848 8.48254 24.8405 7.61767 25.2041C7.18591 25.3862 6.76815 25.4958 6.37047 25.5349C5.97178 25.5737 5.59366 25.5419 5.22871 25.4372C4.86376 25.3324 4.53073 25.16 4.22198 24.9181C3.68283 24.4963 3.21908 23.8567 2.8674 23.0261C2.33695 21.7821 2.06345 20.1212 2.1059 18.2307C2.1473 16.3404 2.50099 14.2206 3.1966 12.0501C4.25466 8.74216 5.91127 5.95147 7.68824 4.14408C8.57497 3.23944 9.49086 2.58359 10.3544 2.22056C10.7863 2.03814 11.2041 1.92847 11.6021 1.88999C12.0009 1.85075 12.379 1.88248 12.744 1.98726C13.109 2.09205 13.442 2.2645 13.7506 2.50682Z" fill="#141414"/>
<path d="M13.7506 2.50682C14.2896 2.92755 14.753 3.56808 15.1058 4.39844C15.6359 5.64187 15.9088 7.30311 15.8663 9.19357C15.8255 11.0839 15.4724 13.2035 14.7766 15.3744C13.7181 18.6822 12.0618 21.4736 10.2843 23.2808C9.39734 24.1848 8.48254 24.8405 7.61767 25.2041C7.18591 25.3862 6.76815 25.4958 6.37047 25.5349C5.97178 25.5737 5.59366 25.5419 5.22871 25.4372C4.86376 25.3324 4.53073 25.16 4.22198 24.9181C3.68283 24.4963 3.21908 23.8567 2.8674 23.0261C2.33695 21.7821 2.06345 20.1212 2.1059 18.2307C2.1473 16.3404 2.50099 14.2206 3.1966 12.0501C4.25466 8.74216 5.91127 5.95147 7.68824 4.14408C8.57497 3.23944 9.49086 2.58359 10.3544 2.22056C10.7863 2.03814 11.2041 1.92847 11.6021 1.88999C12.0009 1.85075 12.379 1.88248 12.744 1.98726C13.109 2.09205 13.442 2.2645 13.7506 2.50682Z" fill="#CCAF7E"/>
<path d="M10.0744 5.23184C9.37951 5.52502 8.6847 6.02956 8.02075 6.70701C6.69427 8.05744 5.49697 10.0868 4.7256 12.4888L4.72385 12.4957C4.21864 14.0735 3.9596 15.616 3.92946 17.005C3.89932 18.394 4.09588 19.6269 4.50566 20.5919L4.50512 20.5903C4.77829 21.2348 5.14622 21.7567 5.61133 22.1212C5.87499 22.329 6.17347 22.4841 6.4967 22.5764C6.76247 22.6527 7.04456 22.508 7.12639 22.2527C7.20823 21.9973 7.05859 21.7288 6.79282 21.6525C6.59873 21.5963 6.42522 21.508 6.25264 21.3733C5.95349 21.1401 5.66464 20.7561 5.43994 20.2231L5.43941 20.2215C5.09858 19.4261 4.90699 18.3059 4.93716 17.0179C4.96447 15.7291 5.20708 14.2685 5.68716 12.7722L5.69496 12.7478C6.42286 10.4782 7.56586 8.56727 8.75243 7.36488L8.75335 7.36364C9.34468 6.75897 9.94802 6.33456 10.4748 6.11385C10.7392 6.00246 10.9837 5.9397 11.2058 5.9182C11.483 5.89134 11.6861 5.65507 11.6601 5.38992C11.6342 5.12479 11.3888 4.93218 11.1116 4.959C10.769 4.99232 10.4215 5.08463 10.0744 5.23184Z" fill="#141414"/>
</svg>
