<svg width="32" height="32" viewBox="0 0 32 32" fill="none" xmlns="http://www.w3.org/2000/svg">
<path d="M2.66663 11.1746C2.66663 9.58018 2.66663 8.78218 2.9824 8.17551C3.24797 7.66459 3.66459 7.24797 4.17551 6.9824C4.78218 6.66663 5.58018 6.66663 7.17463 6.66663H24.6031C26.1975 6.66663 26.9955 6.66663 27.6022 6.9824C28.1131 7.24797 28.5297 7.66459 28.7953 8.17551C29.1111 8.78218 29.1111 9.58018 29.1111 11.1746V20.8253C29.1111 22.4197 29.1111 23.2177 28.7953 23.8244C28.5297 24.3353 28.1131 24.752 27.6022 25.0175C26.9955 25.3333 26.1975 25.3333 24.6031 25.3333H7.17463C5.58018 25.3333 4.78218 25.3333 4.17551 25.0175C3.66459 24.752 3.24797 24.3353 2.9824 23.8244C2.66663 23.2177 2.66663 22.4197 2.66663 20.8253V11.1746Z" stroke="#F4F1EB" stroke-width="1.5"/>
<path d="M2.66663 12.889H29.1111" stroke="#F4F1EB" stroke-width="1.5" stroke-linecap="round"/>
<path d="M7.33356 21.4446C7.76312 21.4446 8.11134 21.0964 8.11134 20.6668C8.11134 20.2373 7.76312 19.889 7.33356 19.889C6.90401 19.889 6.55579 20.2373 6.55579 20.6668C6.55579 21.0964 6.90401 21.4446 7.33356 21.4446Z" fill="#F4F1EB"/>
</svg>
