<svg width="42" height="42" viewBox="0 0 42 42" fill="none" xmlns="http://www.w3.org/2000/svg">
<rect width="42" height="42" rx="21" fill="#E8E4DA"/>
<path d="M13.4171 28.3335V27.2502H15.1667V18.6647C15.1667 17.2492 15.6145 16.0044 16.51 14.9305C17.407 13.8573 18.5427 13.1885 19.9171 12.9242V12.3327C19.9171 12.0315 20.0222 11.7758 20.2324 11.5657C20.4425 11.3548 20.6978 11.2493 20.9983 11.2493C21.298 11.2493 21.554 11.3548 21.7664 11.5657C21.978 11.7758 22.0838 12.0315 22.0838 12.3327V12.9242C23.4589 13.1885 24.5942 13.8576 25.4898 14.9316C26.3853 16.0062 26.8331 17.251 26.8331 18.6658V27.2491H28.5838V28.3324L13.4171 28.3335ZM20.9972 31.1664C20.5148 31.1664 20.1031 30.9949 19.7622 30.6518C19.4213 30.3095 19.2509 29.8978 19.2509 29.4168H22.75C22.75 29.9007 22.5785 30.3135 22.2354 30.6551C21.8917 30.996 21.4789 31.1664 20.9972 31.1664ZM16.25 27.2491H25.7509V18.6658C25.7509 17.3492 25.2883 16.2283 24.3631 15.3032C23.4387 14.3787 22.3178 13.9165 21.0004 13.9165C19.6831 13.9165 18.5622 14.3787 17.6378 15.3032C16.7133 16.2283 16.2511 17.3492 16.2511 18.6658L16.25 27.2491Z" fill="#141414" stroke="#141414" stroke-width="0.5"/>
<rect x="32" y="32" width="9" height="9" rx="4.5" fill="#CCAF7E"/>
</svg>
