<svg width="390" height="94" viewBox="0 0 390 94" fill="none" xmlns="http://www.w3.org/2000/svg">
<rect width="390" height="94" fill="#141414"/>
<path d="M39.2693 30.0252C38.7168 30.0794 38.1756 30.2152 37.6515 30.416C37.128 30.617 36.6208 30.8822 36.131 31.1989C34.6621 32.1508 33.3167 33.5731 32.1303 35.3262C30.9467 37.0821 29.9273 39.1809 29.1813 41.5089C28.6128 43.2828 28.2546 45.0285 28.0955 46.6804C27.9364 48.3324 27.9762 49.8908 28.214 51.2932L28.2141 51.2942C28.4542 52.6958 28.8902 53.9541 29.5807 54.9932C29.927 55.5124 30.3401 55.9783 30.8289 56.3615C31.3181 56.7453 31.8827 57.0429 32.5051 57.2211L37.3937 58.6245C38.0164 58.8037 38.661 58.8533 39.293 58.7913C39.8456 58.7371 40.3863 58.6011 40.9103 58.4003C41.4345 58.1991 41.9411 57.9341 42.4308 57.6176L42.4316 57.6168C43.8995 56.6647 45.2463 55.2443 46.4318 53.4908L46.4374 53.4812C47.6187 51.7268 48.6362 49.632 49.3816 47.3078C49.9495 45.5342 50.3077 43.7881 50.4669 42.1361C50.626 40.4841 50.5857 38.9256 50.3484 37.5233L50.3477 37.5222C50.1076 36.1207 49.6711 34.8627 48.9816 33.8233L48.9808 33.8226C48.6355 33.3037 48.2227 32.8389 47.7333 32.4555C47.2439 32.0722 46.679 31.774 46.0563 31.5952L41.1677 30.1918C40.5454 30.0132 39.9012 29.9637 39.2693 30.0252ZM40.9088 56.3313C40.7236 56.4333 40.5391 56.5251 40.3577 56.6021C39.9256 56.784 39.5078 56.8937 39.1101 56.9327C38.7114 56.9715 38.3328 56.9397 37.9674 56.8347L35.7512 56.1985C36.1912 56.0258 36.6274 55.7978 37.0561 55.5213C37.1581 55.4545 37.26 55.3852 37.3622 55.3131L40.9088 56.3313ZM43.4425 54.2288C43.3045 54.3837 43.1654 54.5354 43.024 54.6787C42.6961 55.0127 42.3646 55.3116 42.0338 55.5763L38.3511 54.5191C38.8025 54.1121 39.2441 53.6527 39.6714 53.1462L43.4425 54.2288ZM45.5202 51.321C45.0804 52.0825 44.6116 52.781 44.1242 53.4091L44.1429 53.351L40.3638 52.2661C40.5143 52.0625 40.6625 51.8518 40.8088 51.6357C41.1104 51.1882 41.401 50.7139 41.6805 50.2187L45.5202 51.321ZM47.3518 47.2646C46.97 48.3757 46.5193 49.4199 46.0225 50.3867L42.1771 49.2828C42.6691 48.3082 43.11 47.2613 43.489 46.1557L47.3518 47.2646ZM48.4123 42.8513C48.2581 43.9559 48.0151 45.105 47.6656 46.2758L43.8079 45.1683C44.1551 44.0048 44.4084 42.8572 44.5724 41.749L48.4123 42.8513ZM48.589 39.3978C48.6091 39.7839 48.6151 40.1817 48.606 40.5915C48.5973 40.987 48.572 41.3946 48.5358 41.8088L44.7007 40.7079C44.7829 39.8777 44.8114 39.074 44.7896 38.3071L48.589 39.3978ZM48.0773 36.4206C48.2614 36.9838 48.3995 37.6108 48.4895 38.2913L44.7203 37.2093C44.6881 36.8848 44.6472 36.567 44.5952 36.26C44.5421 35.9526 44.4788 35.6551 44.4068 35.3669L48.0773 36.4206ZM45.4827 33.3849C45.8481 33.4898 46.1817 33.6624 46.4902 33.9047C46.8895 34.2164 47.2473 34.6496 47.5499 35.1913L44.0722 34.1929L44.0534 34.2516C43.8587 33.7484 43.6276 33.2854 43.3535 32.8732C43.3253 32.8311 43.2963 32.7903 43.2674 32.749L45.4827 33.3849ZM41.6007 32.501C42.1396 32.9218 42.6031 33.5623 42.9559 34.3926C43.486 35.6361 43.7589 37.2973 43.7164 39.1878C43.6756 41.0781 43.3225 43.1977 42.6267 45.3686C41.5682 48.6764 39.9119 51.4678 38.1344 53.275C37.2474 54.179 36.3326 54.8347 35.4678 55.1983C35.036 55.3804 34.6182 55.49 34.2206 55.5291C33.8219 55.5679 33.4438 55.5361 33.0788 55.4314C32.7139 55.3266 32.3808 55.1542 32.0721 54.9123C31.5329 54.4905 31.0692 53.8509 30.7175 53.0203C30.187 51.7763 29.9135 50.1154 29.956 48.2249C29.9974 46.3346 30.3511 44.2148 31.0467 42.0443C32.1048 38.7364 33.7614 35.9457 35.5383 34.1383C36.4251 33.2336 37.341 32.5778 38.2045 32.2148C38.6364 32.0323 39.0542 31.9227 39.4522 31.8842C39.851 31.845 40.2291 31.8767 40.5941 31.9815C40.9591 32.0862 41.2921 32.2587 41.6007 32.501Z" fill="#F4F1EB"/>
<path d="M41.6007 32.501C42.1396 32.9218 42.6031 33.5623 42.9559 34.3926C43.486 35.6361 43.7589 37.2973 43.7164 39.1878C43.6756 41.0781 43.3225 43.1977 42.6267 45.3686C41.5682 48.6764 39.9119 51.4678 38.1344 53.275C37.2474 54.179 36.3326 54.8347 35.4678 55.1983C35.036 55.3804 34.6182 55.49 34.2206 55.5291C33.8219 55.5679 33.4438 55.5361 33.0788 55.4314C32.7139 55.3266 32.3808 55.1542 32.0721 54.9123C31.5329 54.4905 31.0692 53.8509 30.7175 53.0203C30.187 51.7763 29.9135 50.1154 29.956 48.2249C29.9974 46.3346 30.3511 44.2148 31.0467 42.0443C32.1048 38.7364 33.7614 35.9457 35.5383 34.1383C36.4251 33.2336 37.341 32.5778 38.2045 32.2148C38.6364 32.0323 39.0542 31.9227 39.4522 31.8842C39.851 31.845 40.2291 31.8767 40.5941 31.9815C40.9591 32.0862 41.2921 32.2587 41.6007 32.501Z" fill="#CCAF7E"/>
<path d="M37.9245 35.226C37.2296 35.5192 36.5348 36.0238 35.8708 36.7012C34.5444 38.0516 33.3471 40.081 32.5757 42.483L32.574 42.4899C32.0687 44.0677 31.8097 45.6102 31.7796 46.9992C31.7494 48.3882 31.946 49.6211 32.3558 50.5861L32.3552 50.5845C32.6284 51.229 32.9963 51.7509 33.4614 52.1154C33.7251 52.3232 34.0236 52.4783 34.3468 52.5706C34.6126 52.6469 34.8947 52.5022 34.9765 52.2469C35.0583 51.9915 34.9087 51.723 34.6429 51.6467C34.4488 51.5905 34.2753 51.5022 34.1027 51.3675C33.8036 51.1343 33.5147 50.7503 33.29 50.2173L33.2895 50.2157C32.9487 49.4203 32.7571 48.3001 32.7873 47.0121C32.8146 45.7233 33.0572 44.2627 33.5373 42.7664L33.5451 42.742C34.273 40.4724 35.416 38.5615 36.6025 37.3591L36.6034 37.3578C37.1948 36.7532 37.7981 36.3288 38.3249 36.1081C38.5892 35.9967 38.8338 35.9339 39.0559 35.9124C39.3331 35.8855 39.5362 35.6493 39.5102 35.3841C39.4843 35.119 39.2388 34.9264 38.9617 34.9532C38.6191 34.9865 38.2716 35.0788 37.9245 35.226Z" fill="#F4F1EB"/>
<path fill-rule="evenodd" clip-rule="evenodd" d="M116.793 34.0095C117.156 33.5932 117.788 33.5499 118.204 33.9129L125.99 40.7007C126.305 40.9747 126.416 41.415 126.27 41.8054C126.123 42.1958 125.75 42.4545 125.333 42.4545H106.667C106.114 42.4545 105.667 42.0068 105.667 41.4545C105.667 40.9022 106.114 40.4545 106.667 40.4545H122.664L116.89 35.4204C116.474 35.0575 116.43 34.4258 116.793 34.0095Z" fill="#F4F1EB"/>
<path fill-rule="evenodd" clip-rule="evenodd" d="M115.207 53.9903C114.844 54.4067 114.212 54.4499 113.796 54.087L106.01 47.2991C105.695 47.0251 105.584 46.5849 105.73 46.1945C105.877 45.8041 106.25 45.5454 106.667 45.5454H125.333C125.886 45.5454 126.333 45.9931 126.333 46.5454C126.333 47.0977 125.886 47.5454 125.333 47.5454H109.335L115.11 52.5795C115.526 52.9425 115.569 53.5741 115.207 53.9903Z" fill="#F4F1EB"/>
<path d="M202 45.5417H188C186.531 45.5398 185.122 44.9554 184.084 43.9165C183.045 42.8777 182.46 41.4692 182.458 40V31.7424C182.456 30.911 182.642 30.09 183.002 29.3407C183.362 28.5914 183.887 27.9332 184.537 27.4152L192.267 21.2319C193.04 20.6069 194.005 20.266 194.999 20.266C195.994 20.266 196.959 20.6069 197.732 21.2319L205.46 27.4152C206.111 27.9329 206.636 28.5911 206.996 29.3405C207.356 30.0898 207.543 30.9109 207.541 31.7424V40C207.539 41.469 206.954 42.8773 205.916 43.9161C204.877 44.9549 203.469 45.5395 202 45.5417ZM185.632 28.7814C185.187 29.1357 184.827 29.586 184.581 30.0988C184.334 30.6116 184.207 31.1734 184.208 31.7424V40C184.21 41.0053 184.609 41.969 185.32 42.6798C186.031 43.3906 186.995 43.7904 188 43.7917H202C203.005 43.7904 203.969 43.3906 204.68 42.6798C205.391 41.969 205.79 41.0053 205.792 40V31.7424C205.793 31.1734 205.666 30.6116 205.419 30.0988C205.173 29.586 204.814 29.1357 204.368 28.7814L196.64 22.598C196.176 22.2233 195.597 22.0189 195.001 22.0189C194.404 22.0189 193.825 22.2233 193.361 22.598L185.632 28.7814Z" fill="#F4F1EB"/>
<path d="M185.632 28.7814C185.187 29.1357 184.827 29.586 184.581 30.0988C184.334 30.6116 184.207 31.1734 184.208 31.7424V40C184.21 41.0053 184.609 41.969 185.32 42.6798C186.031 43.3906 186.995 43.7904 188 43.7917H202C203.005 43.7904 203.969 43.3906 204.68 42.6798C205.391 41.969 205.79 41.0053 205.792 40V31.7424C205.793 31.1734 205.666 30.6116 205.419 30.0988C205.173 29.586 204.814 29.1357 204.368 28.7814L196.64 22.598C196.176 22.2233 195.597 22.0189 195.001 22.0189C194.404 22.0189 193.825 22.2233 193.361 22.598L185.632 28.7814Z" fill="#F4F1EB"/>
<path d="M196 45.5419V38.3752C196 37.8229 195.552 37.3752 195 37.3752C194.448 37.3752 194 37.8229 194 38.3752V45.5419H196Z" fill="#CCAF7E"/>
<path d="M179.328 62V53.2727H180.385V57.1591H185.039V53.2727H186.095V62H185.039V58.0966H180.385V62H179.328ZM190.734 62.1364C190.143 62.1364 189.624 61.9957 189.178 61.7145C188.735 61.4332 188.389 61.0398 188.139 60.5341C187.892 60.0284 187.768 59.4375 187.768 58.7614C187.768 58.0795 187.892 57.4844 188.139 56.9759C188.389 56.4673 188.735 56.0724 189.178 55.7912C189.624 55.5099 190.143 55.3693 190.734 55.3693C191.325 55.3693 191.842 55.5099 192.285 55.7912C192.731 56.0724 193.078 56.4673 193.325 56.9759C193.575 57.4844 193.7 58.0795 193.7 58.7614C193.7 59.4375 193.575 60.0284 193.325 60.5341C193.078 61.0398 192.731 61.4332 192.285 61.7145C191.842 61.9957 191.325 62.1364 190.734 62.1364ZM190.734 61.233C191.183 61.233 191.552 61.1179 191.842 60.8878C192.132 60.6577 192.346 60.3551 192.485 59.9801C192.624 59.6051 192.694 59.1989 192.694 58.7614C192.694 58.3239 192.624 57.9162 192.485 57.5384C192.346 57.1605 192.132 56.8551 191.842 56.6222C191.552 56.3892 191.183 56.2727 190.734 56.2727C190.285 56.2727 189.916 56.3892 189.626 56.6222C189.336 56.8551 189.122 57.1605 188.982 57.5384C188.843 57.9162 188.774 58.3239 188.774 58.7614C188.774 59.1989 188.843 59.6051 188.982 59.9801C189.122 60.3551 189.336 60.6577 189.626 60.8878C189.916 61.1179 190.285 61.233 190.734 61.233ZM195.235 62V55.4545H196.206V56.4773H196.292C196.428 56.1278 196.648 55.8565 196.952 55.6634C197.256 55.4673 197.621 55.3693 198.047 55.3693C198.479 55.3693 198.839 55.4673 199.126 55.6634C199.415 55.8565 199.641 56.1278 199.803 56.4773H199.871C200.039 56.1392 200.29 55.8707 200.626 55.6719C200.961 55.4702 201.363 55.3693 201.831 55.3693C202.417 55.3693 202.895 55.5526 203.268 55.919C203.64 56.2827 203.826 56.8494 203.826 57.6193V62H202.82V57.6193C202.82 57.1364 202.688 56.7912 202.424 56.5838C202.16 56.3764 201.849 56.2727 201.491 56.2727C201.03 56.2727 200.674 56.4119 200.421 56.6903C200.168 56.9659 200.042 57.3153 200.042 57.7386V62H199.019V57.517C199.019 57.1449 198.898 56.8452 198.657 56.6179C198.415 56.3878 198.104 56.2727 197.724 56.2727C197.462 56.2727 197.218 56.3423 196.991 56.4815C196.766 56.6207 196.584 56.8139 196.445 57.0611C196.309 57.3054 196.241 57.5881 196.241 57.9091V62H195.235ZM208.409 62.1364C207.778 62.1364 207.234 61.9972 206.777 61.7188C206.322 61.4375 205.971 61.0455 205.724 60.5426C205.48 60.0369 205.358 59.4489 205.358 58.7784C205.358 58.108 205.48 57.517 205.724 57.0057C205.971 56.4915 206.315 56.0909 206.756 55.804C207.199 55.5142 207.716 55.3693 208.307 55.3693C208.648 55.3693 208.984 55.4261 209.317 55.5398C209.649 55.6534 209.952 55.8381 210.224 56.0938C210.497 56.3466 210.714 56.6818 210.876 57.0994C211.038 57.517 211.119 58.0312 211.119 58.642V59.0682H206.074V58.1989H210.096C210.096 57.8295 210.023 57.5 209.875 57.2102C209.73 56.9205 209.523 56.6918 209.253 56.5241C208.986 56.3565 208.67 56.2727 208.307 56.2727C207.906 56.2727 207.559 56.3722 207.267 56.571C206.977 56.767 206.754 57.0227 206.598 57.3381C206.442 57.6534 206.363 57.9915 206.363 58.3523V58.9318C206.363 59.4261 206.449 59.8452 206.619 60.1889C206.792 60.5298 207.032 60.7898 207.339 60.9688C207.646 61.1449 208.003 61.233 208.409 61.233C208.673 61.233 208.912 61.196 209.125 61.1222C209.341 61.0455 209.527 60.9318 209.683 60.7812C209.839 60.6278 209.96 60.4375 210.045 60.2102L211.017 60.483C210.915 60.8125 210.743 61.1023 210.501 61.3523C210.26 61.5994 209.961 61.7926 209.606 61.9318C209.251 62.0682 208.852 62.1364 208.409 62.1364Z" fill="#F7F7F7"/>
<path d="M260.667 39.1746C260.667 37.5802 260.667 36.7822 260.982 36.1755C261.248 35.6646 261.665 35.248 262.176 34.9824C262.782 34.6666 263.58 34.6666 265.175 34.6666H282.603C284.198 34.6666 284.996 34.6666 285.602 34.9824C286.113 35.248 286.53 35.6646 286.795 36.1755C287.111 36.7822 287.111 37.5802 287.111 39.1746V48.8253C287.111 50.4197 287.111 51.2177 286.795 51.8244C286.53 52.3353 286.113 52.752 285.602 53.0175C284.996 53.3333 284.198 53.3333 282.603 53.3333H265.175C263.58 53.3333 262.782 53.3333 262.176 53.0175C261.665 52.752 261.248 52.3353 260.982 51.8244C260.667 51.2177 260.667 50.4197 260.667 48.8253V39.1746Z" stroke="#F4F1EB" stroke-width="1.5"/>
<path d="M260.667 40.889H287.111" stroke="#F4F1EB" stroke-width="1.5" stroke-linecap="round"/>
<path d="M265.334 49.4446C265.763 49.4446 266.111 49.0964 266.111 48.6668C266.111 48.2373 265.763 47.889 265.334 47.889C264.904 47.889 264.556 48.2373 264.556 48.6668C264.556 49.0964 264.904 49.4446 265.334 49.4446Z" fill="#F4F1EB"/>
<path d="M351.5 39.1911C350.549 39.1911 349.619 39.4731 348.828 40.0016C348.038 40.53 347.421 41.281 347.057 42.1598C346.693 43.0385 346.598 44.0054 346.783 44.9383C346.969 45.8712 347.427 46.728 348.1 47.4006C348.772 48.0732 349.629 48.5312 350.562 48.7167C351.495 48.9023 352.462 48.807 353.34 48.4431C354.219 48.0791 354.97 47.4627 355.499 46.6719C356.027 45.881 356.309 44.9512 356.309 44.0001C356.308 42.7251 355.801 41.5028 354.899 40.6012C353.997 39.6997 352.775 39.1925 351.5 39.1911ZM351.5 47.9348C350.722 47.9348 349.961 47.704 349.314 47.2717C348.667 46.8393 348.163 46.2248 347.865 45.5058C347.567 44.7869 347.489 43.9957 347.641 43.2325C347.793 42.4693 348.168 41.7682 348.718 41.2179C349.268 40.6676 349.969 40.2929 350.732 40.1411C351.496 39.9892 352.287 40.0672 353.006 40.365C353.725 40.6628 354.339 41.1671 354.772 41.8141C355.204 42.4612 355.435 43.2219 355.435 44.0001C355.435 45.0436 355.02 46.0444 354.282 46.7823C353.544 47.5202 352.544 47.9348 351.5 47.9348ZM360.673 44.3837C360.683 44.128 360.683 43.873 360.673 43.6187L362.403 41.4557C362.446 41.4023 362.476 41.3396 362.49 41.2726C362.505 41.2055 362.503 41.1361 362.485 41.0699C362.226 40.1018 361.84 39.1723 361.337 38.3058C361.303 38.2462 361.256 38.1954 361.199 38.1575C361.142 38.1195 361.077 38.0954 361.009 38.0872L358.256 37.7812C358.083 37.5938 357.902 37.4133 357.715 37.2402L357.41 34.4914C357.402 34.4234 357.377 34.3584 357.339 34.3014C357.302 34.2445 357.251 34.1972 357.191 34.1635C356.326 33.6611 355.398 33.2753 354.431 33.0159C354.365 32.9982 354.296 32.9963 354.229 33.0104C354.162 33.0244 354.099 33.054 354.046 33.0968L351.884 34.8269C351.628 34.8167 351.373 34.8167 351.119 34.8269L348.954 33.0968C348.9 33.0538 348.837 33.024 348.77 33.0098C348.703 32.9956 348.634 32.9973 348.568 33.0148C347.6 33.2739 346.672 33.6602 345.806 34.1635C345.746 34.1972 345.695 34.2445 345.657 34.3014C345.619 34.3584 345.595 34.4234 345.587 34.4914L345.281 37.2445C345.094 37.4177 344.913 37.5982 344.74 37.7855L341.991 38.0905C341.923 38.0987 341.858 38.1228 341.801 38.1607C341.744 38.1987 341.697 38.2495 341.663 38.3091C341.161 39.1745 340.775 40.1024 340.516 41.0688C340.498 41.1349 340.496 41.2043 340.51 41.2713C340.524 41.3384 340.554 41.4011 340.597 41.4546L342.327 43.6165C342.317 43.8722 342.317 44.1273 342.327 44.3816L340.597 46.5467C340.554 46.6001 340.524 46.6628 340.51 46.7298C340.496 46.7969 340.497 46.8663 340.515 46.9325C340.774 47.8999 341.16 48.8286 341.663 49.6944C341.697 49.754 341.744 49.8048 341.801 49.8428C341.858 49.8807 341.923 49.9048 341.991 49.913L344.745 50.219C344.917 50.4059 345.099 50.5874 345.286 50.7601L345.592 53.5143C345.6 53.5823 345.624 53.6473 345.662 53.7043C345.7 53.7612 345.751 53.8085 345.81 53.8422C346.677 54.3433 347.606 54.7277 348.573 54.9854C348.639 55.0031 348.709 55.005 348.776 54.9909C348.843 54.9769 348.905 54.9473 348.959 54.9046L351.121 53.1744C351.377 53.1839 351.632 53.1839 351.886 53.1744L354.049 54.9046C354.126 54.9667 354.223 55.0007 354.322 55.0007C354.359 55.0006 354.396 54.9959 354.431 54.9865C355.399 54.7271 356.328 54.3405 357.194 53.8367C357.254 53.803 357.305 53.7558 357.343 53.6988C357.381 53.6419 357.405 53.5768 357.413 53.5088L357.719 50.7557C357.906 50.583 358.087 50.4016 358.26 50.2147L361.014 49.9086C361.082 49.9004 361.147 49.8764 361.204 49.8384C361.261 49.8004 361.308 49.7496 361.342 49.6901C361.843 48.8234 362.228 47.8944 362.485 46.9271C362.503 46.8609 362.505 46.7915 362.491 46.7245C362.477 46.6575 362.447 46.5947 362.405 46.5412L360.673 44.3837ZM360.692 49.0649L357.996 49.3643C357.888 49.3763 357.789 49.4277 357.717 49.5086C357.495 49.7587 357.259 49.9952 357.009 50.2169C356.928 50.2887 356.876 50.388 356.864 50.4956L356.565 53.1908C355.885 53.5667 355.165 53.8655 354.418 54.0816L352.3 52.3864C352.223 52.3246 352.126 52.2911 352.027 52.2913H352.001C351.667 52.3121 351.333 52.3121 351 52.2913C350.891 52.2848 350.785 52.3187 350.7 52.3864L348.583 54.0805C347.836 53.8653 347.116 53.5673 346.435 53.1919L346.136 50.4956C346.124 50.388 346.073 50.2887 345.992 50.2169C345.742 49.9952 345.505 49.7587 345.283 49.5086C345.212 49.4277 345.112 49.3763 345.005 49.3643L342.309 49.0649C341.933 48.3848 341.635 47.6648 341.419 46.9183L343.114 44.8002C343.182 44.7156 343.215 44.6088 343.209 44.5007C343.189 44.1673 343.189 43.833 343.209 43.4995C343.215 43.3914 343.182 43.2847 343.114 43.2001L341.42 41.083C341.635 40.3362 341.933 39.6158 342.308 38.9353L345.005 38.6359C345.112 38.6239 345.212 38.5725 345.283 38.4916C345.505 38.2415 345.742 38.005 345.992 37.7834C346.073 37.7115 346.124 37.6122 346.136 37.5047L346.435 34.8094C347.115 34.4335 347.835 34.1347 348.582 33.9187L350.7 35.6138C350.785 35.6816 350.891 35.7154 351 35.7089C351.333 35.6882 351.667 35.6882 352.001 35.7089C352.109 35.7154 352.216 35.6816 352.3 35.6138L354.417 33.9198C355.164 34.1349 355.884 34.433 356.565 34.8083L356.864 37.5047C356.876 37.6122 356.928 37.7115 357.009 37.7834C357.259 38.005 357.495 38.2415 357.717 38.4916C357.789 38.5725 357.888 38.6239 357.996 38.6359L360.691 38.9353C361.067 39.6155 361.366 40.3354 361.582 41.0819L359.886 43.2001C359.819 43.2847 359.785 43.3914 359.791 43.4995C359.811 43.833 359.811 44.1673 359.791 44.5007C359.785 44.6088 359.819 44.7156 359.886 44.8002L361.58 46.9172C361.365 47.664 361.067 48.3844 360.692 49.0649Z" fill="#F4F1EB" stroke="#F4F1EB" stroke-width="0.75"/>
</svg>
