<svg width="36" height="50" viewBox="0 0 36 50" fill="none" xmlns="http://www.w3.org/2000/svg">
<path d="M25.0001 26.5417H11.0001C9.53088 26.5398 8.12241 25.9554 7.08355 24.9165C6.04469 23.8777 5.46024 22.4692 5.45839 21V12.7424C5.45645 11.911 5.64244 11.09 6.00245 10.3407C6.36246 9.59142 6.88718 8.93317 7.53739 8.41519L15.2666 2.23185C16.0403 1.60689 17.0049 1.26599 17.9995 1.26599C18.9941 1.26599 19.9587 1.60689 20.7324 2.23185L28.4604 8.41519C29.1109 8.93294 29.636 9.59112 29.9962 10.3405C30.3564 11.0898 30.5425 11.9109 30.5406 12.7424V21C30.5387 22.469 29.9544 23.8773 28.9158 24.9161C27.8772 25.9549 26.469 26.5395 25.0001 26.5417ZM8.63172 9.78135C8.18658 10.1357 7.82733 10.586 7.58085 11.0988C7.33437 11.6116 7.20704 12.1734 7.20839 12.7424V21C7.20962 22.0053 7.6095 22.969 8.32031 23.6798C9.03112 24.3906 9.99482 24.7904 11.0001 24.7917H25.0001C26.0053 24.7904 26.969 24.3906 27.6798 23.6798C28.3906 22.969 28.7905 22.0053 28.7917 21V12.7424C28.7931 12.1734 28.6657 11.6116 28.4193 11.0988C28.1728 10.586 27.8135 10.1357 27.3684 9.78135L19.6404 3.59802C19.176 3.22328 18.5973 3.0189 18.0006 3.0189C17.4039 3.0189 16.8252 3.22328 16.3609 3.59802L8.63172 9.78135Z" fill="#F4F1EB"/>
<path d="M8.63172 9.78135C8.18658 10.1357 7.82733 10.586 7.58085 11.0988C7.33437 11.6116 7.20704 12.1734 7.20839 12.7424V21C7.20962 22.0053 7.6095 22.969 8.32031 23.6798C9.03112 24.3906 9.99482 24.7904 11.0001 24.7917H25.0001C26.0053 24.7904 26.969 24.3906 27.6798 23.6798C28.3906 22.969 28.7905 22.0053 28.7917 21V12.7424C28.7931 12.1734 28.6657 11.6116 28.4193 11.0988C28.1728 10.586 27.8135 10.1357 27.3684 9.78135L19.6404 3.59802C19.176 3.22328 18.5973 3.0189 18.0006 3.0189C17.4039 3.0189 16.8252 3.22328 16.3609 3.59802L8.63172 9.78135Z" fill="#F4F1EB"/>
<path d="M19 26.5419V19.3752C19 18.8229 18.5523 18.3752 18 18.3752C17.4477 18.3752 17 18.8229 17 19.3752V26.5419H19Z" fill="#CCAF7E"/>
<path d="M2.3283 43V34.2727H3.38512V38.1591H8.03853V34.2727H9.09535V43H8.03853V39.0966H3.38512V43H2.3283ZM13.7338 43.1364C13.1429 43.1364 12.6245 42.9957 12.1784 42.7145C11.7353 42.4332 11.3887 42.0398 11.1387 41.5341C10.8915 41.0284 10.7679 40.4375 10.7679 39.7614C10.7679 39.0795 10.8915 38.4844 11.1387 37.9759C11.3887 37.4673 11.7353 37.0724 12.1784 36.7912C12.6245 36.5099 13.1429 36.3693 13.7338 36.3693C14.3248 36.3693 14.8418 36.5099 15.285 36.7912C15.731 37.0724 16.0776 37.4673 16.3248 37.9759C16.5748 38.4844 16.6998 39.0795 16.6998 39.7614C16.6998 40.4375 16.5748 41.0284 16.3248 41.5341C16.0776 42.0398 15.731 42.4332 15.285 42.7145C14.8418 42.9957 14.3248 43.1364 13.7338 43.1364ZM13.7338 42.233C14.1827 42.233 14.552 42.1179 14.8418 41.8878C15.1316 41.6577 15.3461 41.3551 15.4853 40.9801C15.6245 40.6051 15.6941 40.1989 15.6941 39.7614C15.6941 39.3239 15.6245 38.9162 15.4853 38.5384C15.3461 38.1605 15.1316 37.8551 14.8418 37.6222C14.552 37.3892 14.1827 37.2727 13.7338 37.2727C13.285 37.2727 12.9157 37.3892 12.6259 37.6222C12.3361 37.8551 12.1216 38.1605 11.9824 38.5384C11.8432 38.9162 11.7736 39.3239 11.7736 39.7614C11.7736 40.1989 11.8432 40.6051 11.9824 40.9801C12.1216 41.3551 12.3361 41.6577 12.6259 41.8878C12.9157 42.1179 13.285 42.233 13.7338 42.233ZM18.2349 43V36.4545H19.2065V37.4773H19.2917C19.4281 37.1278 19.6483 36.8565 19.9522 36.6634C20.2562 36.4673 20.6213 36.3693 21.0474 36.3693C21.4792 36.3693 21.8386 36.4673 22.1255 36.6634C22.4153 36.8565 22.6412 37.1278 22.8031 37.4773H22.8713C23.0389 37.1392 23.2903 36.8707 23.6255 36.6719C23.9608 36.4702 24.3627 36.3693 24.8315 36.3693C25.4167 36.3693 25.8954 36.5526 26.2676 36.919C26.6397 37.2827 26.8258 37.8494 26.8258 38.6193V43H25.8201V38.6193C25.8201 38.1364 25.688 37.7912 25.4238 37.5838C25.1596 37.3764 24.8485 37.2727 24.4906 37.2727C24.0304 37.2727 23.6738 37.4119 23.421 37.6903C23.1681 37.9659 23.0417 38.3153 23.0417 38.7386V43H22.019V38.517C22.019 38.1449 21.8983 37.8452 21.6568 37.6179C21.4153 37.3878 21.1042 37.2727 20.7235 37.2727C20.4622 37.2727 20.2179 37.3423 19.9906 37.4815C19.7662 37.6207 19.5843 37.8139 19.4451 38.0611C19.3088 38.3054 19.2406 38.5881 19.2406 38.9091V43H18.2349ZM31.4089 43.1364C30.7782 43.1364 30.2342 42.9972 29.7768 42.7188C29.3223 42.4375 28.9714 42.0455 28.7243 41.5426C28.4799 41.0369 28.3578 40.4489 28.3578 39.7784C28.3578 39.108 28.4799 38.517 28.7243 38.0057C28.9714 37.4915 29.3152 37.0909 29.7555 36.804C30.1987 36.5142 30.7157 36.3693 31.3066 36.3693C31.6475 36.3693 31.9842 36.4261 32.3166 36.5398C32.649 36.6534 32.9515 36.8381 33.2243 37.0938C33.497 37.3466 33.7143 37.6818 33.8762 38.0994C34.0382 38.517 34.1191 39.0312 34.1191 39.642V40.0682H29.0737V39.1989H33.0964C33.0964 38.8295 33.0225 38.5 32.8748 38.2102C32.7299 37.9205 32.5225 37.6918 32.2527 37.5241C31.9856 37.3565 31.6703 37.2727 31.3066 37.2727C30.9061 37.2727 30.5595 37.3722 30.2669 37.571C29.9771 37.767 29.7541 38.0227 29.5978 38.3381C29.4416 38.6534 29.3635 38.9915 29.3635 39.3523V39.9318C29.3635 40.4261 29.4487 40.8452 29.6191 41.1889C29.7924 41.5298 30.0325 41.7898 30.3393 41.9688C30.6461 42.1449 31.0027 42.233 31.4089 42.233C31.6731 42.233 31.9118 42.196 32.1248 42.1222C32.3407 42.0455 32.5268 41.9318 32.6831 41.7812C32.8393 41.6278 32.96 41.4375 33.0453 41.2102L34.0169 41.483C33.9146 41.8125 33.7427 42.1023 33.5012 42.3523C33.2598 42.5994 32.9615 42.7926 32.6064 42.9318C32.2512 43.0682 31.8521 43.1364 31.4089 43.1364Z" fill="#F7F7F7"/>
</svg>
