<svg width="23" height="24" viewBox="0 0 23 24" fill="none" xmlns="http://www.w3.org/2000/svg">
<path d="M11.5001 7.19109C10.549 7.19109 9.6192 7.47314 8.82836 8.00156C8.03752 8.52998 7.42114 9.28105 7.05716 10.1598C6.69317 11.0385 6.59794 12.0054 6.7835 12.9383C6.96905 13.8712 7.42707 14.728 8.09962 15.4006C8.77217 16.0732 9.62906 16.5312 10.5619 16.7167C11.4948 16.9023 12.4617 16.807 13.3404 16.4431C14.2192 16.0791 14.9702 15.4627 15.4987 14.6719C16.0271 13.881 16.3091 12.9512 16.3091 12.0001C16.3077 10.7251 15.8006 9.50277 14.899 8.60122C13.9974 7.69967 12.7751 7.19254 11.5001 7.19109ZM11.5001 15.9348C10.7219 15.9348 9.96118 15.704 9.31413 15.2717C8.66708 14.8393 8.16277 14.2248 7.86497 13.5058C7.56716 12.7869 7.48924 11.9957 7.64106 11.2325C7.79288 10.4693 8.16762 9.76816 8.71789 9.21789C9.26816 8.66762 9.96925 8.29288 10.7325 8.14106C11.4957 7.98924 12.2869 8.06716 13.0058 8.36497C13.7248 8.66277 14.3393 9.16709 14.7717 9.81414C15.204 10.4612 15.4348 11.2219 15.4348 12.0001C15.4348 13.0436 15.0202 14.0444 14.2823 14.7823C13.5444 15.5202 12.5436 15.9348 11.5001 15.9348ZM20.6733 12.3837C20.6828 12.128 20.6828 11.873 20.6733 11.6187L22.4035 9.4557C22.4464 9.40232 22.4762 9.33958 22.4904 9.27257C22.5047 9.20555 22.503 9.13612 22.4854 9.06989C22.2265 8.10177 21.8402 7.17229 21.3367 6.3058C21.303 6.24624 21.2558 6.19543 21.1988 6.15746C21.1419 6.1195 21.0768 6.09543 21.0088 6.08721L18.2557 5.78118C18.0825 5.5938 17.902 5.41333 17.7147 5.24016L17.4097 2.49137C17.4015 2.42342 17.3774 2.35835 17.3395 2.3014C17.3015 2.24445 17.2507 2.19721 17.1911 2.16349C16.3258 1.66115 15.3978 1.27528 14.4314 1.01588C14.3653 0.998206 14.2959 0.996317 14.2289 1.01037C14.1619 1.02441 14.0991 1.05401 14.0456 1.09676L11.8837 2.82691C11.628 2.81671 11.373 2.81671 11.1187 2.82691L8.95352 1.09676C8.90013 1.05382 8.8374 1.02403 8.77038 1.00979C8.70336 0.995551 8.63393 0.997262 8.5677 1.01479C7.60034 1.27391 6.67161 1.66018 5.8058 2.16349C5.74624 2.19721 5.69543 2.24445 5.65746 2.3014C5.61949 2.35835 5.59543 2.42342 5.5872 2.49137L5.28118 5.24453C5.0938 5.4177 4.91333 5.59818 4.74016 5.78555L1.99137 6.09048C1.92342 6.09871 1.85835 6.12277 1.8014 6.16074C1.74445 6.19871 1.69721 6.24952 1.66348 6.30908C1.16115 7.17446 0.775278 8.10239 0.515879 9.0688C0.498206 9.13495 0.496317 9.20432 0.510366 9.27134C0.524414 9.33835 0.554006 9.40113 0.596758 9.45461L2.32691 11.6165C2.31671 11.8722 2.31671 12.1273 2.32691 12.3816L0.596758 14.5467C0.553819 14.6001 0.524028 14.6628 0.50979 14.7298C0.495551 14.7969 0.497262 14.8663 0.514786 14.9325C0.77391 15.8999 1.16018 16.8286 1.66348 17.6944C1.69721 17.754 1.74445 17.8048 1.8014 17.8428C1.85835 17.8807 1.92342 17.9048 1.99137 17.913L4.74453 18.219C4.91722 18.4059 5.09865 18.5874 5.28555 18.7601L5.59158 21.5143C5.5998 21.5823 5.62387 21.6473 5.66183 21.7043C5.6998 21.7612 5.75061 21.8085 5.81017 21.8422C6.67681 22.3433 7.60584 22.7277 8.57317 22.9854C8.63932 23.0031 8.70869 23.005 8.77571 22.9909C8.84272 22.9769 8.9055 22.9473 8.95898 22.9046L11.1209 21.1744C11.3766 21.1839 11.6316 21.1839 11.8859 21.1744L14.0489 22.9046C14.1264 22.9667 14.2228 23.0007 14.3221 23.0007C14.359 23.0006 14.3957 22.9959 14.4314 22.9865C15.3992 22.7271 16.3283 22.3405 17.1944 21.8367C17.254 21.803 17.3048 21.7558 17.3428 21.6988C17.3807 21.6419 17.4048 21.5768 17.413 21.5088L17.719 18.7557C17.9059 18.583 18.0874 18.4016 18.2601 18.2147L21.0143 17.9086C21.0823 17.9004 21.1473 17.8764 21.2043 17.8384C21.2612 17.8004 21.3085 17.7496 21.3422 17.6901C21.8433 16.8234 22.2277 15.8944 22.4854 14.9271C22.5031 14.8609 22.505 14.7915 22.4909 14.7245C22.4769 14.6575 22.4473 14.5947 22.4046 14.5412L20.6733 12.3837ZM20.6919 17.0649L17.9956 17.3643C17.888 17.3763 17.7887 17.4277 17.7169 17.5086C17.4952 17.7587 17.2587 17.9952 17.0086 18.2169C16.9277 18.2887 16.8763 18.388 16.8643 18.4956L16.5649 21.1908C15.8848 21.5667 15.1648 21.8655 14.4183 22.0816L12.3002 20.3864C12.2225 20.3246 12.1261 20.2911 12.0269 20.2913H12.0007C11.6673 20.3121 11.3329 20.3121 10.9995 20.2913C10.8914 20.2848 10.7847 20.3187 10.7001 20.3864L8.583 22.0805C7.83622 21.8653 7.11585 21.5673 6.43534 21.1919L6.13587 18.4956C6.12393 18.388 6.07253 18.2887 5.9916 18.2169C5.74153 17.9952 5.50502 17.7587 5.28336 17.5086C5.21152 17.4277 5.11221 17.3763 5.00466 17.3643L2.30942 17.0649C1.93348 16.3848 1.63471 15.6648 1.41866 14.9183L3.11384 12.8002C3.18155 12.7156 3.21544 12.6088 3.20893 12.5007C3.18926 12.1673 3.18926 11.833 3.20893 11.4995C3.21544 11.3914 3.18155 11.2847 3.11384 11.2001L1.41976 9.083C1.63492 8.33622 1.93297 7.61585 2.30833 6.93534L5.00466 6.63587C5.11221 6.62393 5.21152 6.57253 5.28336 6.4916C5.50502 6.24153 5.74153 6.00502 5.9916 5.78336C6.07253 5.71152 6.12393 5.61221 6.13587 5.50466L6.43534 2.80942C7.11545 2.43348 7.83544 2.13471 8.58191 1.91866L10.7001 3.61384C10.7847 3.68155 10.8914 3.71544 10.9995 3.70893C11.3329 3.68816 11.6673 3.68816 12.0007 3.70893C12.1088 3.71544 12.2156 3.68155 12.3002 3.61384L14.4172 1.91976C15.164 2.13492 15.8844 2.43297 16.5649 2.80833L16.8643 5.50466C16.8763 5.61221 16.9277 5.71152 17.0086 5.78336C17.2587 6.00502 17.4952 6.24153 17.7169 6.4916C17.7887 6.57253 17.888 6.62393 17.9956 6.63587L20.6908 6.93534C21.0667 7.61546 21.3655 8.33545 21.5816 9.08191L19.8864 11.2001C19.8187 11.2847 19.7848 11.3914 19.7913 11.4995C19.811 11.833 19.811 12.1673 19.7913 12.5007C19.7848 12.6088 19.8187 12.7156 19.8864 12.8002L21.5805 14.9172C21.3653 15.664 21.0672 16.3844 20.6919 17.0649Z" fill="#F4F1EB" stroke="#F4F1EB" stroke-width="0.75"/>
</svg>
