<svg width="12" height="4" viewBox="0 0 12 4" fill="none" xmlns="http://www.w3.org/2000/svg">
<path d="M2.06769 3.40095C2.83951 3.40095 3.46864 2.77182 3.46864 2C3.46864 1.22819 2.83951 0.59906 2.06769 0.59906C1.29587 0.59906 0.666748 1.22819 0.666748 2C0.666748 2.77182 1.29587 3.40095 2.06769 3.40095Z" fill="#141414"/>
<path d="M6.16675 3.40095C6.93856 3.40095 7.56769 2.77182 7.56769 2C7.56769 1.22819 6.93856 0.59906 6.16675 0.59906C5.39493 0.59906 4.7658 1.22819 4.7658 2C4.7658 2.77182 5.39493 3.40095 6.16675 3.40095Z" fill="#141414"/>
<path d="M10.2658 3.40095C11.0376 3.40095 11.6667 2.77182 11.6667 2C11.6667 1.22819 11.0376 0.59906 10.2658 0.59906C9.49399 0.59906 8.86486 1.22819 8.86486 2C8.86486 2.77182 9.49399 3.40095 10.2658 3.40095Z" fill="#141414"/>
</svg>
