<svg width="26" height="26" viewBox="0 0 26 26" fill="none" xmlns="http://www.w3.org/2000/svg">
<path d="M13 17.875C13.1538 17.875 13.2828 17.823 13.3868 17.719C13.49 17.6157 13.5417 17.4872 13.5417 17.3333V12.4583C13.5417 12.3045 13.4897 12.1759 13.3857 12.0727C13.2817 11.9687 13.1531 11.9167 13 11.9167C12.8469 11.9167 12.7183 11.9687 12.6143 12.0727C12.5111 12.1767 12.4594 12.3052 12.4594 12.4583V17.3333C12.4594 17.4872 12.5114 17.6157 12.6154 17.719C12.7194 17.823 12.8483 17.875 13.0022 17.875M13 10.3751C13.1892 10.3751 13.3474 10.3112 13.4745 10.1833C13.6023 10.0555 13.6663 9.89733 13.6663 9.70883C13.6663 9.51961 13.6023 9.36108 13.4745 9.23325C13.3474 9.10542 13.1892 9.0415 13 9.0415C12.8108 9.0415 12.6526 9.10542 12.5255 9.23325C12.3977 9.36108 12.3338 9.51961 12.3338 9.70883C12.3338 9.89733 12.3977 10.0555 12.5255 10.1833C12.6526 10.3112 12.8108 10.3751 13 10.3751ZM13.0033 22.75C11.6556 22.75 10.3881 22.4943 9.20075 21.983C8.01414 21.4709 6.98172 20.7762 6.1035 19.8987C5.22528 19.0219 4.53014 17.9906 4.01808 16.8047C3.50603 15.6188 3.25 14.3516 3.25 13.0033C3.25 11.6556 3.50567 10.3881 4.017 9.20075C4.52906 8.01414 5.22383 6.98172 6.10133 6.1035C6.97811 5.22528 8.00944 4.53014 9.19533 4.01808C10.3812 3.50603 11.6484 3.25 12.9967 3.25C14.3444 3.25 15.6119 3.50567 16.7993 4.017C17.9859 4.52906 19.0183 5.22383 19.8965 6.10133C20.7747 6.97811 21.4699 8.00944 21.9819 9.19533C22.494 10.3812 22.75 11.6484 22.75 12.9967C22.75 14.3444 22.4943 15.6119 21.983 16.7993C21.4709 17.9859 20.7762 19.0183 19.8987 19.8965C19.0219 20.7747 17.9906 21.4699 16.8047 21.9819C15.6188 22.494 14.3516 22.75 13.0033 22.75ZM13 21.6667C15.4194 21.6667 17.4688 20.8271 19.1479 19.1479C20.8271 17.4688 21.6667 15.4194 21.6667 13C21.6667 10.5806 20.8271 8.53125 19.1479 6.85208C17.4688 5.17292 15.4194 4.33333 13 4.33333C10.5806 4.33333 8.53125 5.17292 6.85208 6.85208C5.17292 8.53125 4.33333 10.5806 4.33333 13C4.33333 15.4194 5.17292 17.4688 6.85208 19.1479C8.53125 20.8271 10.5806 21.6667 13 21.6667Z" fill="#F4F1EB"/>
</svg>
