<svg width="32" height="32" viewBox="0 0 32 32" fill="none" xmlns="http://www.w3.org/2000/svg">
<path d="M16.2693 2.02517C15.7168 2.07938 15.1756 2.21517 14.6515 2.41604C14.128 2.61699 13.6208 2.88224 13.131 3.1989C11.6621 4.15076 10.3167 5.57306 9.13034 7.32622C7.94666 9.08215 6.92735 11.1809 6.18128 13.5089C5.61276 15.2828 5.25464 17.0285 5.0955 18.6804C4.93641 20.3324 4.97622 21.8908 5.21395 23.2932L5.21414 23.2942C5.45423 24.6958 5.89021 25.9541 6.58072 26.9932C6.92698 27.5124 7.34005 27.9783 7.8289 28.3615C8.31809 28.7453 8.88272 29.0429 9.50509 29.2211L14.3937 30.6245C15.0164 30.8037 15.661 30.8533 16.293 30.7913C16.8456 30.7371 17.3863 30.6011 17.9103 30.4003C18.4345 30.1991 18.9411 29.9341 19.4308 29.6176L19.4316 29.6168C20.8995 28.6647 22.2463 27.2443 23.4318 25.4908L23.4374 25.4812C24.6187 23.7268 25.6362 21.632 26.3816 19.3078C26.9495 17.5342 27.3077 15.7881 27.4669 14.1361C27.626 12.4841 27.5857 10.9256 27.3484 9.52334L27.3477 9.52223C27.1076 8.12065 26.6711 6.86272 25.9816 5.82332L25.9808 5.8226C25.6355 5.30374 25.2227 4.83892 24.7333 4.45551C24.2439 4.07215 23.679 3.77396 23.0563 3.59519L18.1677 2.1918C17.5454 2.01315 16.9012 1.96371 16.2693 2.02517ZM17.9088 28.3313C17.7236 28.4333 17.5391 28.5251 17.3577 28.6021C16.9256 28.784 16.5078 28.8937 16.1101 28.9327C15.7114 28.9715 15.3328 28.9397 14.9674 28.8347L12.7512 28.1985C13.1912 28.0258 13.6274 27.7978 14.0561 27.5213C14.1581 27.4545 14.26 27.3852 14.3622 27.3131L17.9088 28.3313ZM20.4425 26.2288C20.3045 26.3837 20.1654 26.5354 20.024 26.6787C19.6961 27.0127 19.3646 27.3116 19.0338 27.5763L15.3511 26.5191C15.8025 26.1121 16.2441 25.6527 16.6714 25.1462L20.4425 26.2288ZM22.5202 23.321C22.0804 24.0825 21.6116 24.781 21.1242 25.4091L21.1429 25.351L17.3638 24.2661C17.5143 24.0625 17.6625 23.8518 17.8088 23.6357C18.1104 23.1882 18.401 22.7139 18.6805 22.2187L22.5202 23.321ZM24.3518 19.2646C23.97 20.3757 23.5193 21.4199 23.0225 22.3867L19.1771 21.2828C19.6691 20.3082 20.11 19.2613 20.489 18.1557L24.3518 19.2646ZM25.4123 14.8513C25.2581 15.9559 25.0151 17.105 24.6656 18.2758L20.8079 17.1683C21.1551 16.0048 21.4084 14.8572 21.5724 13.749L25.4123 14.8513ZM25.589 11.3978C25.6091 11.7839 25.6151 12.1817 25.606 12.5915C25.5973 12.987 25.572 13.3946 25.5358 13.8088L21.7007 12.7079C21.7829 11.8777 21.8114 11.074 21.7896 10.3071L25.589 11.3978ZM25.0773 8.42061C25.2614 8.98385 25.3995 9.61077 25.4895 10.2913L21.7203 9.20928C21.6881 8.88477 21.6472 8.56704 21.5952 8.25997C21.5421 7.9526 21.4788 7.65509 21.4068 7.36691L25.0773 8.42061ZM22.4827 5.3849C22.8481 5.48981 23.1817 5.66237 23.4902 5.90466C23.8895 6.21637 24.2473 6.64965 24.5499 7.19126L21.0722 6.19292L21.0534 6.25157C20.8587 5.74837 20.6276 5.28541 20.3535 4.87317C20.3253 4.83114 20.2963 4.79028 20.2674 4.74902L22.4827 5.3849ZM18.6007 4.50102C19.1396 4.92175 19.6031 5.56228 19.9559 6.39264C20.486 7.63608 20.7589 9.29732 20.7164 11.1878C20.6756 13.0781 20.3225 15.1977 19.6267 17.3686C18.5682 20.6764 16.9119 23.4678 15.1344 25.275C14.2474 26.179 13.3326 26.8347 12.4678 27.1983C12.036 27.3804 11.6182 27.49 11.2206 27.5291C10.8219 27.5679 10.4438 27.5361 10.0788 27.4314C9.71386 27.3266 9.38083 27.1542 9.07208 26.9123C8.53293 26.4905 8.06917 25.8509 7.7175 25.0203C7.18705 23.7763 6.91355 22.1154 6.956 20.2249C6.9974 18.3346 7.35109 16.2148 8.0467 14.0443C9.10476 10.7364 10.7614 7.94567 12.5383 6.13828C13.4251 5.23364 14.341 4.57779 15.2045 4.21476C15.6364 4.03234 16.0542 3.92267 16.4522 3.88419C16.851 3.84496 17.2291 3.87668 17.5941 3.98147C17.9591 4.08625 18.2921 4.2587 18.6007 4.50102Z" fill="#F4F1EB"/>
<path d="M18.6007 4.50102C19.1396 4.92175 19.6031 5.56228 19.9559 6.39264C20.486 7.63608 20.7589 9.29732 20.7164 11.1878C20.6756 13.0781 20.3225 15.1977 19.6267 17.3686C18.5682 20.6764 16.9119 23.4678 15.1344 25.275C14.2474 26.179 13.3326 26.8347 12.4678 27.1983C12.036 27.3804 11.6182 27.49 11.2206 27.5291C10.8219 27.5679 10.4438 27.5361 10.0788 27.4314C9.71386 27.3266 9.38083 27.1542 9.07208 26.9123C8.53293 26.4905 8.06917 25.8509 7.7175 25.0203C7.18705 23.7763 6.91355 22.1154 6.956 20.2249C6.9974 18.3346 7.35109 16.2148 8.0467 14.0443C9.10476 10.7364 10.7614 7.94567 12.5383 6.13828C13.4251 5.23364 14.341 4.57779 15.2045 4.21476C15.6364 4.03234 16.0542 3.92267 16.4522 3.88419C16.851 3.84496 17.2291 3.87668 17.5941 3.98147C17.9591 4.08625 18.2921 4.2587 18.6007 4.50102Z" fill="#CCAF7E"/>
<path d="M14.9245 7.22604C14.2296 7.51922 13.5348 8.02376 12.8708 8.70121C11.5444 10.0516 10.3471 12.081 9.5757 14.483L9.57395 14.4899C9.06874 16.0677 8.8097 17.6102 8.77956 18.9992C8.74942 20.3882 8.94598 21.6211 9.35576 22.5861L9.35522 22.5845C9.62839 23.229 9.99632 23.7509 10.4614 24.1154C10.7251 24.3232 11.0236 24.4783 11.3468 24.5706C11.6126 24.6469 11.8947 24.5022 11.9765 24.2469C12.0583 23.9915 11.9087 23.723 11.6429 23.6467C11.4488 23.5905 11.2753 23.5022 11.1027 23.3675C10.8036 23.1343 10.5147 22.7503 10.29 22.2173L10.2895 22.2157C9.94868 21.4203 9.75708 20.3001 9.78726 19.0121C9.81456 17.7233 10.0572 16.2627 10.5373 14.7664L10.5451 14.742C11.273 12.4724 12.416 10.5615 13.6025 9.35908L13.6034 9.35784C14.1948 8.75317 14.7981 8.32876 15.3249 8.10805C15.5892 7.99667 15.8338 7.9339 16.0559 7.9124C16.3331 7.88554 16.5362 7.64927 16.5102 7.38412C16.4843 7.11899 16.2388 6.92638 15.9617 6.9532C15.6191 6.98652 15.2716 7.07883 14.9245 7.22604Z" fill="#F4F1EB"/>
</svg>
