<svg width="32" height="32" viewBox="0 0 32 32" fill="none" xmlns="http://www.w3.org/2000/svg">
<path fill-rule="evenodd" clip-rule="evenodd" d="M16.7934 6.0095C17.1564 5.59321 17.7881 5.54994 18.2044 5.91286L25.9905 12.7007C26.3048 12.9747 26.416 13.415 26.2697 13.8054C26.1234 14.1958 25.7502 14.4545 25.3333 14.4545H6.66663C6.11435 14.4545 5.66663 14.0068 5.66663 13.4545C5.66663 12.9022 6.11435 12.4545 6.66663 12.4545H22.6645L16.8901 7.42041C16.4738 7.05749 16.4305 6.4258 16.7934 6.0095Z" fill="#F4F1EB"/>
<path fill-rule="evenodd" clip-rule="evenodd" d="M15.2065 25.9903C14.8436 26.4067 14.2119 26.4499 13.7956 26.087L6.00954 19.2991C5.69526 19.0251 5.58395 18.5849 5.73025 18.1945C5.87655 17.8041 6.24973 17.5454 6.66667 17.5454H25.3333C25.8856 17.5454 26.3333 17.9931 26.3333 18.5454C26.3333 19.0977 25.8856 19.5454 25.3333 19.5454H9.33549L15.1099 24.5795C15.5261 24.9425 15.5695 25.5741 15.2065 25.9903Z" fill="#F4F1EB"/>
</svg>
