<svg width="12" height="10" viewBox="0 0 12 10" fill="none" xmlns="http://www.w3.org/2000/svg">
<path d="M11.0476 1.96938H2.06801C1.91916 1.96938 1.77641 1.91025 1.67116 1.805C1.56591 1.69975 1.50678 1.557 1.50678 1.40816C1.50678 1.25931 1.56591 1.11656 1.67116 1.01131C1.77641 0.90606 1.91916 0.846931 2.06801 0.846931H9.70066C9.78997 0.846931 9.87562 0.811454 9.93877 0.748304C10.0019 0.685154 10.0374 0.599504 10.0374 0.510197C10.0374 0.420889 10.0019 0.335239 9.93877 0.272089C9.87562 0.208939 9.78997 0.173462 9.70066 0.173462H2.06801C1.74055 0.173462 1.4265 0.303545 1.19495 0.535095C0.963396 0.766645 0.833313 1.08069 0.833313 1.40816V8.59183C0.833313 8.91929 0.963396 9.23334 1.19495 9.46489C1.4265 9.69644 1.74055 9.82652 2.06801 9.82652H11.0476C11.256 9.82652 11.4558 9.74374 11.6032 9.59639C11.7505 9.44904 11.8333 9.24919 11.8333 9.04081V2.75509C11.8333 2.54671 11.7505 2.34686 11.6032 2.19951C11.4558 2.05216 11.256 1.96938 11.0476 1.96938ZM11.1598 9.04081C11.1598 9.07058 11.148 9.09913 11.127 9.12018C11.1059 9.14123 11.0774 9.15305 11.0476 9.15305H2.06801C1.91916 9.15305 1.77641 9.09393 1.67116 8.98868C1.56591 8.88342 1.50678 8.74067 1.50678 8.59183V2.50759C1.68042 2.59672 1.87283 2.64309 2.06801 2.64285H11.0476C11.0774 2.64285 11.1059 2.65468 11.127 2.67573C11.148 2.69678 11.1598 2.72533 11.1598 2.75509V9.04081ZM9.58842 5.67346C9.58842 5.78446 9.5555 5.89297 9.49383 5.98526C9.43216 6.07755 9.34451 6.14949 9.24196 6.19197C9.13941 6.23444 9.02657 6.24556 8.9177 6.2239C8.80883 6.20225 8.70883 6.1488 8.63034 6.07031C8.55186 5.99182 8.4984 5.89182 8.47675 5.78295C8.4551 5.67408 8.46621 5.56124 8.50869 5.45869C8.55116 5.35614 8.6231 5.26849 8.71539 5.20682C8.80768 5.14515 8.91619 5.11224 9.02719 5.11224C9.17604 5.11224 9.31879 5.17137 9.42404 5.27662C9.52929 5.38187 9.58842 5.52462 9.58842 5.67346Z" fill="#141414" stroke="#141414" stroke-width="0.3"/>
</svg>
